<svg xmlns="http://www.w3.org/2000/svg" viewBox="0 0 567.33 141.97"><defs><style>.cls-1{fill:#819fc5;}.cls-2{fill:#134489;}</style></defs><title>Asset 2</title><g id="Layer_2" data-name="Layer 2"><g id="Layer_1-2" data-name="Layer 1"><path class="cls-1" d="M0,71.06A69.48,69.48,0,0,1,2.55,52.19,71.38,71.38,0,0,1,9.72,35.25,70.93,70.93,0,0,1,35.1,9.86,72.47,72.47,0,0,1,52.05,2.69,69.42,69.42,0,0,1,70.92.14V35.6a34,34,0,0,0-13.83,2.84A36.39,36.39,0,0,0,45.81,46.1a35.75,35.75,0,0,0-7.59,11.27,34.46,34.46,0,0,0-2.76,13.69Zm70.92,35.46a34,34,0,0,0,13.82-2.84A36.5,36.5,0,0,0,96,96a35.69,35.69,0,0,0,7.59-11.28,34.41,34.41,0,0,0,2.76-13.68h35.46a69.38,69.38,0,0,1-5.53,27.65,70.51,70.51,0,0,1-15.18,22.49,72.72,72.72,0,0,1-22.55,15.17A68.58,68.58,0,0,1,70.92,142Z"/><path class="cls-1" d="M212.75,71.06,283.66,142h-50.2L162.54,71.06,233.46.14h50.2Z"/><path class="cls-1" d="M425.5,50.21,333.73,142H283.66l70.92-70.91L425.5.14ZM354.58,71.06H304.37L283.66,50.21V.14Z"/><path class="cls-2" d="M70.92,35.6a34,34,0,0,0-13.83,2.84A36.46,36.46,0,0,0,45.82,46.1a35.42,35.42,0,0,0-7.59,11.27,34.29,34.29,0,0,0-2.77,13.69,34.65,34.65,0,0,0,2.77,13.83,35.47,35.47,0,0,0,18.86,18.86,34.79,34.79,0,0,0,13.83,2.77V142a69.43,69.43,0,0,1-27.66-5.53A70.74,70.74,0,0,1,5.54,98.71,69.39,69.39,0,0,1,0,71.06,70.65,70.65,0,0,1,20.71,20.92,73,73,0,0,1,43.26,5.74,68.79,68.79,0,0,1,70.92.14Z"/><path class="cls-2" d="M248.21.14h35.46V71.06H141.84V.14h35.45V35.6h70.92V.14Z"/><path class="cls-2" d="M354.58.14a70.54,70.54,0,0,1,50.14,20.71A73,73,0,0,1,419.9,43.4,71.07,71.07,0,0,1,423,89.92a72,72,0,0,1-7.16,17,71.26,71.26,0,0,1-11.07,14.33,70.51,70.51,0,0,1-14.32,11.06,72,72,0,0,1-16.95,7.16A69.42,69.42,0,0,1,354.58,142a68.58,68.58,0,0,1-27.65-5.6,72.72,72.72,0,0,1-22.55-15.17A70.35,70.35,0,0,1,289.2,98.71a69.38,69.38,0,0,1-5.53-27.65A69.43,69.43,0,0,1,289.2,43.4,70.9,70.9,0,0,1,326.93,5.67,69.56,69.56,0,0,1,354.58.14Zm0,106.38a33.64,33.64,0,0,0,13.69-2.84,36.32,36.32,0,0,0,18.94-18.94A33.62,33.62,0,0,0,390,71.06a34,34,0,0,0-2.83-13.83A37,37,0,0,0,379.55,46a35.72,35.72,0,0,0-11.28-7.58,34.26,34.26,0,0,0-13.69-2.77,34.6,34.6,0,0,0-13.82,2.77,35.36,35.36,0,0,0-18.87,18.86,34.78,34.78,0,0,0-2.76,13.83,34.41,34.41,0,0,0,2.76,13.68A35.52,35.52,0,0,0,329.48,96a36.39,36.39,0,0,0,11.28,7.66A34,34,0,0,0,354.58,106.52Z"/><path class="cls-2" d="M496.42,71.06,567.33.14V50.21l-70.91,70.91L425.5,50.21V.14Z"/></g></g></svg>